<svg width="20" height="23" viewBox="0 0 20 23" fill="none" xmlns="http://www.w3.org/2000/svg">
<path d="M17.635 3.00735V2.50735V3.00735ZM18.8591 4.18179H18.3591H18.8591ZM0.738281 4.18179H0.238281H0.738281ZM1.96236 3.00735V3.50735V3.00735ZM17.635 21.979V21.479V21.979ZM18.8591 20.8045H19.3591H18.8591ZM4.98064 19.0819H5.48064H4.98064ZM3.75518 17.9074L3.75518 18.4074H3.75572L3.75518 17.9074ZM1.20962 18.3648L0.862741 18.7249L1.20962 18.3648ZM6.51631 21.979V22.479V21.979ZM3.86556 20.919L3.51948 21.2799L3.86556 20.919ZM1.35255 8.52941C1.0764 8.52941 0.852545 8.75327 0.852545 9.02941C0.852545 9.30555 1.0764 9.52941 1.35255 9.52941V8.52941ZM18.7055 9.52941C18.9817 9.52941 19.2055 9.30555 19.2055 9.02941C19.2055 8.75327 18.9817 8.52941 18.7055 8.52941V9.52941ZM5.85319 5.44081C5.85319 5.71695 6.07705 5.94081 6.35319 5.94081C6.62934 5.94081 6.85319 5.71695 6.85319 5.44081H5.85319ZM6.85319 1C6.85319 0.723858 6.62934 0.5 6.35319 0.5C6.07705 0.5 5.85319 0.723858 5.85319 1H6.85319ZM13.2244 5.44081C13.2244 5.71695 13.4482 5.94081 13.7244 5.94081C14.0005 5.94081 14.2244 5.71695 14.2244 5.44081H13.2244ZM14.2244 1C14.2244 0.723858 14.0005 0.5 13.7244 0.5C13.4482 0.5 13.2244 0.723858 13.2244 1H14.2244ZM6.26666 12.5441C5.99052 12.5441 5.76666 12.768 5.76666 13.0441C5.76666 13.3203 5.99052 13.5441 6.26666 13.5441V12.5441ZM6.42023 13.5441C6.69637 13.5441 6.92023 13.3203 6.92023 13.0441C6.92023 12.768 6.69637 12.5441 6.42023 12.5441V13.5441ZM6.26666 15.9412C5.99052 15.9412 5.76666 16.165 5.76666 16.4412C5.76666 16.7173 5.99052 16.9412 6.26666 16.9412V15.9412ZM6.42023 16.9412C6.69637 16.9412 6.92023 16.7173 6.92023 16.4412C6.92023 16.165 6.69637 15.9412 6.42023 15.9412V16.9412ZM9.95225 12.5441C9.67611 12.5441 9.45225 12.768 9.45225 13.0441C9.45225 13.3203 9.67611 13.5441 9.95225 13.5441V12.5441ZM10.1058 13.5441C10.382 13.5441 10.6058 13.3203 10.6058 13.0441C10.6058 12.768 10.382 12.5441 10.1058 12.5441V13.5441ZM9.95225 15.9412C9.67611 15.9412 9.45225 16.165 9.45225 16.4412C9.45225 16.7173 9.67611 16.9412 9.95225 16.9412V15.9412ZM10.1058 16.9412C10.382 16.9412 10.6058 16.7173 10.6058 16.4412C10.6058 16.165 10.382 15.9412 10.1058 15.9412V16.9412ZM13.6378 12.5441C13.3617 12.5441 13.1378 12.768 13.1378 13.0441C13.1378 13.3203 13.3617 13.5441 13.6378 13.5441V12.5441ZM13.7914 13.5441C14.0675 13.5441 14.2914 13.3203 14.2914 13.0441C14.2914 12.768 14.0675 12.5441 13.7914 12.5441V13.5441ZM13.6378 15.9412C13.3617 15.9412 13.1378 16.165 13.1378 16.4412C13.1378 16.7173 13.3617 16.9412 13.6378 16.9412V15.9412ZM13.7914 16.9412C14.0675 16.9412 14.2914 16.7173 14.2914 16.4412C14.2914 16.165 14.0675 15.9412 13.7914 15.9412V16.9412ZM17.635 21.479H6.51631V22.479H17.635V21.479ZM1.23828 17.2519V4.18179H0.238281L0.238281 17.2519H1.23828ZM1.96236 3.50735L17.635 3.50735V2.50735L1.96236 2.50735V3.50735ZM18.3591 4.18179L18.3591 20.8045H19.3591L19.3591 4.18179H18.3591ZM17.635 3.50735C18.0546 3.50735 18.3591 3.82861 18.3591 4.18179H19.3591C19.3591 3.23772 18.5675 2.50735 17.635 2.50735V3.50735ZM1.23828 4.18179C1.23828 3.82861 1.54275 3.50735 1.96236 3.50735V2.50735C1.02988 2.50735 0.238281 3.23772 0.238281 4.18179H1.23828ZM4.21164 20.5581C3.34757 19.7295 2.19323 18.6181 1.5565 18.0047L0.862741 18.7249C1.49948 19.3383 2.65453 20.4504 3.51948 21.2799L4.21164 20.5581ZM17.635 22.479C18.5675 22.479 19.3591 21.7486 19.3591 20.8045H18.3591C18.3591 21.1577 18.0546 21.479 17.635 21.479V22.479ZM4.48064 19.0819L4.48064 22H5.48064V19.0819H4.48064ZM0.738281 18.4074L3.75518 18.4074L3.75518 17.4074L0.738281 17.4074L0.738281 18.4074ZM5.48064 19.0819C5.48064 18.137 4.68783 17.4064 3.75464 17.4074L3.75572 18.4074C4.17569 18.407 4.48064 18.7284 4.48064 19.0819H5.48064ZM0.238281 17.2519C0.238281 17.8073 0.461723 18.3387 0.862741 18.7249L1.5565 18.0047C1.35307 17.8088 1.23828 17.5382 1.23828 17.2519H0.238281ZM6.51631 21.479C6.17381 21.479 5.72886 21.381 5.28826 21.2053C4.84746 21.0295 4.45834 20.7947 4.21164 20.5581L3.51948 21.2799C3.88651 21.6319 4.3987 21.9271 4.91781 22.1341C5.43712 22.3412 6.01068 22.479 6.51631 22.479V21.479ZM1.35255 9.52941H18.7055V8.52941H1.35255V9.52941ZM6.85319 5.44081V1H5.85319V5.44081H6.85319ZM14.2244 5.44081V1H13.2244V5.44081H14.2244ZM6.26666 13.5441H6.42023V12.5441H6.26666V13.5441ZM6.26666 16.9412H6.42023V15.9412H6.26666V16.9412ZM9.95225 13.5441H10.1058V12.5441H9.95225V13.5441ZM9.95225 16.9412H10.1058V15.9412H9.95225V16.9412ZM13.6378 13.5441H13.7914V12.5441H13.6378V13.5441ZM13.6378 16.9412H13.7914V15.9412H13.6378V16.9412Z" fill="#CAD6FF"/>
</svg>
