<svg width="13" height="10" viewBox="0 0 13 10" fill="none" xmlns="http://www.w3.org/2000/svg">
<path d="M5.8204 3.00209H12.3673M5.8204 3.00209C5.8204 3.90604 5.08761 4.63883 4.18366 4.63883C3.27972 4.63883 2.54692 3.90604 2.54692 3.00209M5.8204 3.00209C5.8204 2.09815 5.08761 1.36536 4.18366 1.36536C3.27972 1.36536 2.54692 2.09815 2.54692 3.00209M0.910187 3.00209H2.54692M9.91224 7.09394H12.3673M9.91224 7.09394C9.91224 7.99788 9.17945 8.73068 8.27551 8.73068C7.37156 8.73068 6.63877 7.99788 6.63877 7.09394M9.91224 7.09394C9.91224 6.18999 9.17945 5.4572 8.27551 5.4572C7.37156 5.4572 6.63877 6.18999 6.63877 7.09394M0.910187 7.09394H6.63877" stroke="#2260FF" stroke-linecap="round" stroke-linejoin="round"/>
</svg>
